<svg xmlns:rdf="http://www.w3.org/1999/02/22-rdf-syntax-ns#" xmlns="http://www.w3.org/2000/svg" xmlns:cc="http://web.resource.org/cc/" xmlns:xlink="http://www.w3.org/1999/xlink" xmlns:dc="http://purl.org/dc/elements/1.1/" xmlns:svg="http://www.w3.org/2000/svg" xmlns:inkscape="http://www.inkscape.org/namespaces/inkscape" xmlns:sodipodi="http://sodipodi.sourceforge.net/DTD/sodipodi-0.dtd" xmlns:ns1="http://sozi.baierouge.fr" xml:space="preserve" version="1.1" enable-background="new 0 0 110 175" width="103" height="156"><rect id="backgroundrect" width="100%" height="100%" x="0" y="0" fill="none" stroke="none"/>

<metadata><rdf:RDF><cc:Work><dc:format>image/svg+xml</dc:format><dc:type rdf:resource="http://purl.org/dc/dcmitype/StillImage"/><cc:license rdf:resource="http://creativecommons.org/licenses/publicdomain/"/><dc:publisher><cc:Agent rdf:about="http://openclipart.org/"><dc:title>Openclipart</dc:title></cc:Agent></dc:publisher><dc:title>Green Home Icon</dc:title><dc:date>2013-05-05T21:57:12</dc:date><dc:description>A green icon shaped like a location pointer, with a house symbol. The icon could be used as a location pointer, a home icon or an icon with a different symbol. </dc:description><dc:source>https://openclipart.org/detail/177826/green-home-icon-by-j32-177826</dc:source><dc:creator><cc:Agent><dc:title>J32</dc:title></cc:Agent></dc:creator><dc:subject><rdf:Bag><rdf:li>arrow</rdf:li><rdf:li>color</rdf:li><rdf:li>green</rdf:li><rdf:li>home</rdf:li><rdf:li>house</rdf:li><rdf:li>icon</rdf:li><rdf:li>icons</rdf:li><rdf:li>indicator</rdf:li><rdf:li>location</rdf:li><rdf:li>location marker</rdf:li><rdf:li>location pointer</rdf:li><rdf:li>map</rdf:li><rdf:li>map marker</rdf:li><rdf:li>map pointer</rdf:li><rdf:li>notification</rdf:li><rdf:li>pointer</rdf:li><rdf:li>symbol</rdf:li></rdf:Bag></dc:subject></cc:Work><cc:License rdf:about="http://creativecommons.org/licenses/publicdomain/"><cc:permits rdf:resource="http://creativecommons.org/ns#Reproduction"/><cc:permits rdf:resource="http://creativecommons.org/ns#Distribution"/><cc:permits rdf:resource="http://creativecommons.org/ns#DerivativeWorks"/></cc:License></rdf:RDF></metadata><g class="currentLayer" style=""><title>Layer 1</title><g id="Home" class="">
			<path d="m101.78600311279297,62.67900216674805 c0.17900000000000002,-0.806 0.3360000000000001,-1.62 0.47700000000000004,-2.439 c0.47600000000000003,-2.6340000000000003 0.7530000000000001,-5.135 0.7530000000000001,-7.434 c0,-0.14900000000000002 -0.017000000000000005,-0.29200000000000004 -0.022000000000000006,-0.43900000000000006 c0.006000000000000002,-0.28700000000000003 0.022000000000000006,-0.5720000000000001 0.022000000000000006,-0.8590000000000001 c0,-28.447 -23.062,-51.508 -51.508,-51.508 s-51.508,23.061 -51.508,51.507 c0,0.28400000000000003 0.016000000000000004,0.5630000000000001 0.020000000000000004,0.8460000000000001 c-0.004000000000000001,0.15200000000000002 -0.020000000000000004,0.29900000000000004 -0.020000000000000004,0.453 c0,34.263 51.508,103.02 51.508,103.02 s40.504,-55.316 49.656,-90.638 c0.17800000000000002,-0.6340000000000001 0.3390000000000001,-1.275 0.48700000000000004,-1.92 c0.04000000000000001,-0.19800000000000004 0.09000000000000002,-0.39200000000000007 0.13,-0.5860000000000001 z" fill="#0369a1" id="svg_1"/>
		<mask id="SVGID_1_" height="155.82200622558594" width="103.01599884033203" y="1.996999979019165" x="4.464000225067139" maskUnits="userSpaceOnUse" transform="translate(-4.463996887207031,-1.9969978332519531) ">
		</mask>
		<g opacity=".5" mask="url(#SVGID_1_)" id="svg_2">
			<path d="m101.78600311279297,62.67900216674805 c0.17900000000000002,-0.806 0.3360000000000001,-1.62 0.47700000000000004,-2.439 c0.47600000000000003,-2.6340000000000003 0.7530000000000001,-5.135 0.7530000000000001,-7.434 c0,-0.14900000000000002 -0.017000000000000005,-0.29200000000000004 -0.022000000000000006,-0.43900000000000006 c0.006000000000000002,-0.28700000000000003 0.022000000000000006,-0.5720000000000001 0.022000000000000006,-0.8590000000000001 c0,-28.447 -23.062,-51.508 -51.508,-51.508 s-51.508,23.061 -51.508,51.507 c0,0.28400000000000003 0.016000000000000004,0.5630000000000001 0.020000000000000004,0.8460000000000001 c-0.004000000000000001,0.15200000000000002 -0.020000000000000004,0.29900000000000004 -0.020000000000000004,0.453 c0,34.263 51.508,103.02 51.508,103.02 s40.504,-55.316 49.656,-90.638 c0.17800000000000002,-0.6340000000000001 0.3390000000000001,-1.275 0.48700000000000004,-1.92 c0.04000000000000001,-0.19800000000000004 0.09000000000000002,-0.39200000000000007 0.13,-0.5860000000000001 z" id="svg_3"/>
		</g>
	<path id="path5343_1_" d="m79.32200311279297,41.79200216674805 h-55.629 l13.907,-9.389 l13.907,-9.39 l13.907,9.39 l13.908,9.389 z" fill="#fff"/>
	<path d="m29.086003112792966,43.82500216674805 v32.273 h25.959 v-19.065 h10.891 v19.065 h7.992 v-32.273 h-44.842 zm15.887,22.044 h-9.249 v-9.247 h9.249 v9.247 z" fill="#fff" id="svg_4"/>
</g></g></svg>